<svg id="Layer_1" data-name="Layer 1" xmlns="http://www.w3.org/2000/svg" viewBox="0 0 812.95 975.2"><defs><style>.cls-1{fill:#ec1d24;}.cls-2{fill:#231f20;}.cls-3{fill:#ed1c24;}</style></defs><title>redditspeak</title><path class="cls-1" d="M682.75,373.89q-23.67-33-66.51-53.7-58.07-28.08-111.32-1.31t-88.65,100L283.06,694.49,105,608.41,383.9,31.29,562,117.37,510.25,224.46l2.25,1.08q98.93-96.78,208.83-43.67,28.17,13.6,40.69,28Z" transform="translate(-84.26 -10.59)"/><path class="cls-2" d="M290.27,715.19l-206-99.57,292.43-605,206,99.57-31.5,65.18c19.6-11.93,39.58-20.06,59.8-24.28,38.07-8,77.46-2.29,117.08,16.85,20.86,10.09,35.79,20.49,45.63,31.79l6.72,7.72L685.36,404.11l-15.2-21.19c-14.18-19.77-34.59-36.18-60.66-48.78-34.44-16.64-66.37-17.11-97.62-1.41-32.2,16.17-59.68,47.43-81.66,92.9Zm-164.61-114,150.19,72.59L402.31,412.14c25-51.76,57.21-87.8,95.66-107.11,39.87-20,81.93-19.62,125,1.2,22.14,10.7,41,23.91,56.19,39.43l64-132.44c-7-5.76-16.59-11.59-28.61-17.4-67.35-32.55-129.91-19.21-191.24,40.8l-7.79,7.62-26-12.57L541.3,124.58,391.11,52Z" transform="translate(-84.26 -10.59)"/><path class="cls-2" d="M385,933V772.74q48.82,29.43,97.35,43.82T574,831q52.57,0,82.94-14.39t30.36-43.82a40.57,40.57,0,0,0-13.77-31.3q-13.78-12.53-35.37-21.91a402.71,402.71,0,0,0-47.27-16.89q-25.67-7.5-49.44-16.9-38.21-14.4-67.29-31t-48.83-38.5a151.08,151.08,0,0,1-30.05-50.7Q384.95,536.77,385,497.31q0-53.83,23.47-92.64A191.88,191.88,0,0,1,471,341.14q39.12-24.72,89.52-36.31a466.61,466.61,0,0,1,104.84-11.6,583.38,583.38,0,0,1,86.38,6.58,645.71,645.71,0,0,1,86.39,19.1V471.64a312.78,312.78,0,0,0-80.44-32.86,339.51,339.51,0,0,0-84.19-10.95,186.1,186.1,0,0,0-36.62,3.45,120.91,120.91,0,0,0-30.36,10q-13.15,6.56-20.66,16.89a38.91,38.91,0,0,0-7.51,23.47q0,17.52,11.26,30t29.42,21.6a289.64,289.64,0,0,0,40.38,16.28q22.21,7.21,44.14,14.7a577.16,577.16,0,0,1,71.36,30.06q31.92,16.27,54.76,38.18a150,150,0,0,1,35.07,51.32Q877,713.29,877,754q0,57-24.74,97.35A198,198,0,0,1,786.52,917Q745.49,942.4,692,954a525.23,525.23,0,0,1-111.09,11.58Q475.1,965.55,385,933Z" transform="translate(-84.26 -10.59)"/><path class="cls-3" d="M580.89,985.79c-72.54,0-140.77-11.36-202.81-33.77l-13.37-4.82V736.89l30.7,18.51c30.91,18.64,62.09,32.69,92.64,41.76,30.33,9,59.24,13.55,85.95,13.55,31.86,0,56.85-4.18,74.27-12.44,16.55-7.85,18.79-17.31,18.79-25.53a20.47,20.47,0,0,0-7.15-16.33c-7.49-6.8-17.53-13-29.83-18.32a385.13,385.13,0,0,0-44.87-16c-17.54-5.13-34.71-11-51.05-17.45-26.25-9.9-49.81-20.76-70-32.28-21.22-12.1-39.34-26.42-53.85-42.55a171.76,171.76,0,0,1-34-57.41c-7.64-21.28-11.52-46.53-11.52-75.07,0-39.48,8.88-74.17,26.39-103.12A212.76,212.76,0,0,1,460.22,324c27.9-17.64,60.13-30.73,95.79-38.93A489.52,489.52,0,0,1,665.39,273a606.22,606.22,0,0,1,89.37,6.8,669.78,669.78,0,0,1,89.11,19.7l14.53,4.27V506.87L828,489.13a294,294,0,0,0-75.26-30.74,320.82,320.82,0,0,0-79.17-10.32,166.94,166.94,0,0,0-32.65,3.06,101.32,101.32,0,0,0-25.29,8.28c-5.87,2.93-10.23,6.42-13.33,10.68a18.71,18.71,0,0,0-3.64,11.57c0,6.66,1.92,11.9,6.06,16.5,5.78,6.42,13.67,12.15,23.44,17a268.41,268.41,0,0,0,37.55,15.13c15.78,5.13,30.32,10,44.46,14.81l.13,0a600.21,600.21,0,0,1,73.87,31.14C807,588,827.08,602,843.71,617.9a170.84,170.84,0,0,1,39.75,58.18c9.13,22,13.75,48.24,13.75,77.87,0,41.59-9.33,77.9-27.72,107.92a219.1,219.1,0,0,1-72.32,72.38c-29.2,18-63.14,31.34-100.91,39.5A547.6,547.6,0,0,1,580.89,985.79Zm-175.7-67.23c54,17.75,113.07,26.75,175.7,26.75a507.29,507.29,0,0,0,106.82-11.13c33.24-7.18,62.91-18.75,88.16-34.36A178.92,178.92,0,0,0,835,840.73C849.41,817.16,856.73,788,856.73,754c0-24.29-3.59-45.27-10.67-62.36a130.37,130.37,0,0,0-30.37-44.46c-13.75-13.18-30.56-24.87-49.94-34.75a559.79,559.79,0,0,0-68.79-29c-13.92-4.76-28.24-9.53-43.78-14.58A309.46,309.46,0,0,1,610,551.39c-14.29-7.14-26.2-15.94-35.39-26.14-10.93-12.13-16.47-26.8-16.47-43.59a58.86,58.86,0,0,1,11.4-35.38c6.91-9.51,16.32-17.28,28-23.09a141.55,141.55,0,0,1,35.42-11.76,207.7,207.7,0,0,1,40.6-3.84,361.19,361.19,0,0,1,89.19,11.58,337.11,337.11,0,0,1,55.2,19.31V334.24a631.23,631.23,0,0,0-69.16-14.41,564.57,564.57,0,0,0-83.37-6.35,448.26,448.26,0,0,0-100.31,11.08c-31.2,7.16-59.2,18.5-83.23,33.69a172.45,172.45,0,0,0-56.11,56.9c-13.63,22.53-20.55,50.18-20.55,82.16,0,23.86,3.08,44.51,9.14,61.4a131.77,131.77,0,0,0,26,44c11.62,12.92,26.36,24.51,43.81,34.46,18.41,10.49,40.08,20.46,64.41,29.62l.31.12c15.23,6,31.26,11.51,47.67,16.3A425,425,0,0,1,646.21,701c16.38,7.13,30.15,15.7,40.93,25.49a61,61,0,0,1,20.4,46.29c0,19.26-7.28,45.68-41.93,62.11-23.21,11-53.18,16.35-91.61,16.35-30.61,0-63.4-5.13-97.46-15.23a421,421,0,0,1-71.35-28.82Z" transform="translate(-84.26 -10.59)"/></svg>